<!-- Generated by IcoMoon.io -->
<svg version="1.1" xmlns="http://www.w3.org/2000/svg" width="20" height="32" viewBox="0 0 20 32">
<path d="M8.132 16.261l10.046 10.044c0.612 0.607 0.991 1.448 0.991 2.378 0 1.849-1.499 3.349-3.349 3.349-0.93 0-1.771-0.379-2.378-0.991l-12.464-12.462c-0.606-0.606-0.981-1.443-0.981-2.368 0-1.17 0.6-2.199 1.508-2.798l0.013-0.008 12.423-12.423c0.606-0.606 1.443-0.981 2.368-0.981 1.85 0 3.349 1.499 3.349 3.349 0 0.925-0.375 1.762-0.981 2.368l-10.544 10.543z"></path>
</svg>
