<!-- Generated by IcoMoon.io -->
<svg version="1.1" xmlns="http://www.w3.org/2000/svg" width="57" height="32" viewBox="0 0 57 32">
<path fill="#fff" d="M32.143 1.168l23.773 23.775c0.684 0.71 1.105 1.677 1.105 2.742 0 2.185-1.771 3.955-3.955 3.955-1.065 0-2.032-0.421-2.744-1.106l0.001 0.001-21.628-21.625-21.944 21.942c-0.721 0.748-1.731 1.213-2.85 1.213-2.185 0-3.955-1.771-3.955-3.955 0-1.119 0.465-2.13 1.212-2.849l0.001-0.001 23.773-23.773c0.714-0.715 1.701-1.158 2.791-1.158 0.022 0 0.045 0 0.067 0.001l-0.003-0c0.459-0.202 0.995-0.319 1.557-0.319 1.093 0 2.082 0.443 2.799 1.159v0z"></path>
</svg>
