<!-- Generated by IcoMoon.io -->
<svg version="1.1" xmlns="http://www.w3.org/2000/svg" width="32" height="32" viewBox="0 0 32 32">
<path fill="#fff" d="M25.16 14.133h-8.973v3.733h5.2c-0.2 0.933-0.907 2.24-1.907 2.893-1.333 0.88-3.080 1.080-4.387 0.813-2.027-0.4-3.64-1.88-4.293-3.76v-0.027c-0.4-1.16-0.4-2.72 0-3.653 0.533-1.72 2.187-3.28 4.227-3.707 1.64-0.347 3.493 0.027 4.853 1.293 0.187-0.173 2.507-2.44 2.693-2.627-4.653-4.213-12.107-2.733-14.893 2.707l-0.013 0.013c-0.636 1.213-1.009 2.65-1.009 4.174 0 1.534 0.378 2.98 1.046 4.25l-0.024-0.050h-0.013c1.213 2.347 3.413 4.133 6.053 4.827 2.813 0.733 6.387 0.227 8.787-1.933 2.027-1.827 3.293-4.947 2.653-8.947z"></path>
</svg>
