<svg width="24.511475" height="49.000000" viewBox="0 0 24.5115 49" fill="none" xmlns="http://www.w3.org/2000/svg" xmlns:xlink="http://www.w3.org/1999/xlink">
	<desc>
			Created with Pixso.
	</desc>
	<defs/>
	<path id="Vector" d="M24.51 15.31L24.51 7.65C24.51 6.81 23.82 6.12 22.97 6.12L21.44 6.12L21.44 1.53C21.44 0.68 20.76 0 19.91 0C17.74 0 14.42 -0.17 10.52 2.17C8.1 1.45 6.38 1.53 4.59 1.53C3.74 1.53 3.06 2.21 3.06 3.06L3.06 6.12L1.53 6.12C0.68 6.12 0 6.81 0 7.65L0 15.31C0 21.55 4.68 26.71 10.72 27.46L10.72 47.46C10.72 48.31 11.4 49 12.25 49C13.1 49 13.78 48.31 13.78 47.46L13.78 42.1L16.08 42.1C20.73 42.1 24.51 38.33 24.51 33.68L24.51 31.39C24.51 30.54 23.82 29.86 22.97 29.86L19.14 29.86C17.11 29.86 15.24 30.58 13.78 31.79L13.78 27.46C19.81 26.72 24.51 21.58 24.51 15.31ZM21.44 15.31C21.44 18.03 20.24 20.5 18.33 22.18C18.36 21.94 18.38 21.69 18.38 21.43C18.38 17.56 16.93 14.01 14.54 11.31C16.57 9.93 18.96 9.18 21.44 9.18L21.44 15.31ZM18.38 3.06L18.38 6.43C18.1 6.49 17.81 6.55 17.54 6.63C16.54 5.52 15.41 4.57 14.17 3.8C15.51 3.31 16.93 3.06 18.38 3.06ZM6.12 4.59C9.17 4.59 12.12 5.7 14.42 7.82C13.66 8.22 12.93 8.67 12.25 9.19C10.47 7.85 8.38 6.89 6.12 6.43L6.12 4.59ZM3.06 15.31L3.06 9.18C9.82 9.18 15.31 14.68 15.31 21.43C15.31 23.15 13.9 24.54 12.17 24.49C6.79 24.36 3.06 20.09 3.06 15.31ZM19.14 32.92L21.44 32.92L21.44 33.68C21.44 36.64 19.04 39.04 16.08 39.04L13.78 39.04L13.78 38.28C13.78 35.32 16.19 32.92 19.14 32.92Z" fill="#FFFFFF" fill-opacity="1.000000" fill-rule="nonzero"/>
</svg>
