<!-- Generated by IcoMoon.io -->
<svg version="1.1" xmlns="http://www.w3.org/2000/svg" width="16" height="32" viewBox="0 0 16 32">
<path fill="#fff" d="M16.006 9.998v-5.002c0-0.549-0.451-0.999-1.006-0.999h-0.999v-2.998c0-0.555-0.444-0.999-0.999-0.999-1.417 0-3.585-0.111-6.132 1.417-1.58-0.47-2.704-0.418-3.873-0.418-0.555 0-0.999 0.444-0.999 0.999v1.998h-0.999c-0.555 0-0.999 0.451-0.999 0.999v5.002c0 4.075 3.056 7.445 7.001 7.935v13.061c0 0.555 0.444 1.006 0.999 1.006s0.999-0.451 0.999-1.006v-3.5h1.502c3.037 0 5.505-2.462 5.505-5.499v-1.495c0-0.555-0.451-0.999-1.006-0.999h-2.501c-1.326 0-2.547 0.47-3.5 1.26v-2.828c3.938-0.483 7.007-3.84 7.007-7.935zM14.001 9.998c0 1.776-0.784 3.389-2.031 4.487 0.020-0.157 0.033-0.32 0.033-0.49 0-2.527-0.947-4.846-2.508-6.609 1.326-0.901 2.887-1.391 4.506-1.391v4.003zM12.003 1.998v2.201c-0.183 0.039-0.372 0.078-0.549 0.131-0.653-0.725-1.391-1.345-2.201-1.848 0.875-0.32 1.802-0.483 2.749-0.483zM3.996 2.998c1.992 0 3.918 0.725 5.42 2.109-0.496 0.261-0.973 0.555-1.417 0.895-1.162-0.875-2.527-1.502-4.003-1.802v-1.202zM1.998 9.998v-4.003c4.415 0 8 3.592 8 8 0 1.123-0.921 2.031-2.051 1.998-3.513-0.085-5.949-2.873-5.949-5.995zM12.499 21.499h1.502v0.496c0 1.933-1.567 3.5-3.5 3.5h-1.502v-0.496c0-1.933 1.574-3.5 3.5-3.5z"></path>
</svg>
