<svg aria-hidden="true" style="position: absolute; width: 0; height: 0; overflow: hidden;" version="1.1" xmlns="http://www.w3.org/2000/svg" xmlns:xlink="http://www.w3.org/1999/xlink">
<defs>
<symbol id="icon-Icon" viewBox="0 0 29 32">
<path d="M1.159 31.837l27.368-15.198q0.406-0.24 0.462-0.536 0.018-0.055 0.018-0.111c0-0.24-0.166-0.462-0.48-0.646l-27.368-15.198q-0.369-0.222-0.665-0.129-0.074 0.018-0.166 0.055c-0.222 0.148-0.314 0.388-0.314 0.757v30.323c0 0.369 0.092 0.609 0.314 0.757 0.24 0.129 0.517 0.111 0.831-0.074z"></path>
</symbol>
<symbol id="icon-rose" viewBox="0 0 16 32">
<path d="M16.006 9.998v-5.002c0-0.549-0.451-0.999-1.006-0.999h-0.999v-2.998c0-0.555-0.444-0.999-0.999-0.999-1.417 0-3.585-0.111-6.132 1.417-1.58-0.47-2.704-0.418-3.873-0.418-0.555 0-0.999 0.444-0.999 0.999v1.998h-0.999c-0.555 0-0.999 0.451-0.999 0.999v5.002c0 4.075 3.056 7.445 7.001 7.935v13.061c0 0.555 0.444 1.006 0.999 1.006s0.999-0.451 0.999-1.006v-3.5h1.502c3.037 0 5.505-2.462 5.505-5.499v-1.495c0-0.555-0.451-0.999-1.006-0.999h-2.501c-1.326 0-2.547 0.47-3.5 1.26v-2.828c3.938-0.483 7.007-3.84 7.007-7.935zM14.001 9.998c0 1.776-0.784 3.389-2.031 4.487 0.020-0.157 0.033-0.32 0.033-0.49 0-2.527-0.947-4.846-2.508-6.609 1.326-0.901 2.887-1.391 4.506-1.391v4.003zM12.003 1.998v2.201c-0.183 0.039-0.372 0.078-0.549 0.131-0.653-0.725-1.391-1.345-2.201-1.848 0.875-0.32 1.802-0.483 2.749-0.483zM3.996 2.998c1.992 0 3.918 0.725 5.42 2.109-0.496 0.261-0.973 0.555-1.417 0.895-1.162-0.875-2.527-1.502-4.003-1.802v-1.202zM1.998 9.998v-4.003c4.415 0 8 3.592 8 8 0 1.123-0.921 2.031-2.051 1.998-3.513-0.085-5.949-2.873-5.949-5.995zM12.499 21.499h1.502v0.496c0 1.933-1.567 3.5-3.5 3.5h-1.502v-0.496c0-1.933 1.574-3.5 3.5-3.5z"></path>
</symbol>
<symbol id="icon-search" viewBox="0 0 32 32">
<path d="M20.667 18.667h-1.053l-0.373-0.36c1.301-1.502 2.093-3.475 2.093-5.634 0-0.002 0-0.004 0-0.006v0c0-4.786-3.88-8.667-8.667-8.667s-8.667 3.88-8.667 8.667c0 4.786 3.88 8.667 8.667 8.667v0c2.147 0 4.12-0.787 5.64-2.093l0.36 0.373v1.053l6.667 6.653 1.987-1.987-6.653-6.667zM12.667 18.667c-3.32 0-6-2.68-6-6s2.68-6 6-6 6 2.68 6 6-2.68 6-6 6z"></path>
</symbol>
<symbol id="icon-Rectangle" viewBox="0 0 84 32">
<path d="M16 0h52.211c8.837 0 16 7.163 16 16s-7.163 16-16 16h-52.211c-8.837 0-16-7.163-16-16s7.163-16 16-16z"></path>
</symbol>
<symbol id="icon-play_arrow" viewBox="0 0 32 32">
<path d="M10.671 6.66v18.672l14.679-9.332-14.679-9.34z"></path>
</symbol>
<symbol id="icon-menu" viewBox="0 0 32 32">
<path d="M7 22h18.009v-2h-18.009v2zM7 17h18.009v-2h-18.009v2zM7 10v2h18.009v-2h-18.009z"></path>
</symbol>
<symbol id="icon-linkedin" viewBox="0 0 32 32">
<path d="M7.333 8c-1.105 0-2-0.895-2-2s0.895-2 2-2v0c1.105 0 2 0.895 2 2s-0.895 2-2 2v0zM22.564 25.333h4.103v-9.012c0-3.813-2.141-5.655-5.043-5.655s-4.188 2.351-4.188 2.351v-1.56h-4.103v13.876h4.103v-7.472c0-2 1.007-3.192 2.701-3.192 1.557 0 2.427 1.143 2.427 3.192v7.472zM9.333 25.333h-4v-13.333h4v13.333z"></path>
</symbol>
<symbol id="icon-google" viewBox="0 0 32 32">
<path d="M25.16 14.133h-8.973v3.733h5.2c-0.2 0.933-0.907 2.24-1.907 2.893-1.333 0.88-3.080 1.080-4.387 0.813-2.027-0.4-3.64-1.88-4.293-3.76v-0.027c-0.4-1.16-0.4-2.72 0-3.653 0.533-1.72 2.187-3.28 4.227-3.707 1.64-0.347 3.493 0.027 4.853 1.293 0.187-0.173 2.507-2.44 2.693-2.627-4.653-4.213-12.107-2.733-14.893 2.707l-0.013 0.013c-0.636 1.213-1.009 2.65-1.009 4.174 0 1.534 0.378 2.98 1.046 4.25l-0.024-0.050h-0.013c1.213 2.347 3.413 4.133 6.053 4.827 2.813 0.733 6.387 0.227 8.787-1.933 2.027-1.827 3.293-4.947 2.653-8.947z"></path>
</symbol>
<symbol id="icon-facebook" viewBox="0 0 32 32">
<path d="M17.933 25.333v-9h2.92l0.48-4h-3.4v-1.96c0-1.027 0.027-2.040 1.56-2.040h1.56v-2.867c0-0.040-1.333-0.133-2.68-0.133-2.827 0-4.6 1.653-4.6 4.693v2.307h-3.107v4h3.107v9h4.16z"></path>
</symbol>
<symbol id="icon-circle" viewBox="0 0 32 32">
<path d="M32 16c0 8.837-7.163 16-16 16s-16-7.163-16-16c0-8.837 7.163-16 16-16s16 7.163 16 16z"></path>
</symbol>
<symbol id="icon-arrow-up" viewBox="0 0 57 32">
<path d="M32.143 1.168l23.773 23.775c0.684 0.71 1.105 1.677 1.105 2.742 0 2.185-1.771 3.955-3.955 3.955-1.065 0-2.032-0.421-2.744-1.106l0.001 0.001-21.628-21.625-21.944 21.942c-0.721 0.748-1.731 1.213-2.85 1.213-2.185 0-3.955-1.771-3.955-3.955 0-1.119 0.465-2.13 1.212-2.849l0.001-0.001 23.773-23.773c0.714-0.715 1.701-1.158 2.791-1.158 0.022 0 0.045 0 0.067 0.001l-0.003-0c0.459-0.202 0.995-0.319 1.557-0.319 1.093 0 2.082 0.443 2.799 1.159v0z"></path>
</symbol>
<symbol id="icon-arrow-left" viewBox="0 0 20 32">
<path d="M8.132 16.261l10.046 10.044c0.612 0.607 0.991 1.448 0.991 2.378 0 1.849-1.499 3.349-3.349 3.349-0.93 0-1.771-0.379-2.378-0.991l-12.464-12.462c-0.606-0.606-0.981-1.443-0.981-2.368 0-1.17 0.6-2.199 1.508-2.798l0.013-0.008 12.423-12.423c0.606-0.606 1.443-0.981 2.368-0.981 1.85 0 3.349 1.499 3.349 3.349 0 0.925-0.375 1.762-0.981 2.368l-10.544 10.543z"></path>
</symbol>
<symbol id="icon-arrow-right" viewBox="0 0 20 32">
<path d="M11.522 16.261l-10.046 10.044c-0.612 0.607-0.991 1.448-0.991 2.378 0 1.849 1.499 3.349 3.349 3.349 0.93 0 1.771-0.379 2.378-0.991l12.464-12.464c0.606-0.606 0.981-1.443 0.981-2.368 0-1.17-0.6-2.199-1.509-2.798l-0.013-0.008-12.422-12.422c-0.606-0.606-1.443-0.981-2.368-0.981-1.85 0-3.349 1.499-3.349 3.349 0 0.925 0.375 1.762 0.981 2.368l10.544 10.543z"></path>
</symbol>
</defs>
</svg>
